name D:\school\WTK\thesis\model\3dpredictsim\Results\Batchsim_tmt_linear_v2\Pog_s1_tmt_aCst_d05_k800_ig24_act.mot
datacolumns 128
datarows 4
range 0.00000000 0.03895290
endheader
time	pelvis_tilt	pelvis_list	pelvis_rotation	pelvis_tx	pelvis_ty	pelvis_tz	hip_flexion_l	hip_adduction_l	hip_rotation_l	hip_flexion_r	hip_adduction_r	hip_rotation_r	knee_angle_l	knee_angle_r	ankle_angle_l	ankle_angle_r	subtalar_angle_l	subtalar_angle_r	tmt_angle_l	tmt_angle_r	mtp_angle_l	mtp_angle_r	lumbar_extension	lumbar_bending	lumbar_rotation	arm_flex_l	arm_add_l	arm_rot_l	arm_flex_r	arm_add_r	arm_rot_r	elbow_flex_l	elbow_flex_r	pro_sup_l	pro_sup_r	glut_med1_l/activation	glut_med2_l/activation	glut_med3_l/activation	glut_min1_l/activation	glut_min2_l/activation	glut_min3_l/activation	semimem_l/activation	semiten_l/activation	bifemlh_l/activation	bifemsh_l/activation	sar_l/activation	add_long_l/activation	add_brev_l/activation	add_mag1_l/activation	add_mag2_l/activation	add_mag3_l/activation	tfl_l/activation	pect_l/activation	grac_l/activation	glut_max1_l/activation	glut_max2_l/activation	glut_max3_l/activation	iliacus_l/activation	psoas_l/activation	quad_fem_l/activation	gem_l/activation	peri_l/activation	rect_fem_l/activation	vas_med_l/activation	vas_int_l/activation	vas_lat_l/activation	med_gas_l/activation	lat_gas_l/activation	soleus_l/activation	tib_post_l/activation	flex_dig_l/activation	flex_hal_l/activation	tib_ant_l/activation	per_brev_l/activation	per_long_l/activation	per_tert_l/activation	ext_dig_l/activation	ext_hal_l/activation	ercspn_l/activation	intobl_l/activation	extobl_l/activation	glut_med1_r/activation	glut_med2_r/activation	glut_med3_r/activation	glut_min1_r/activation	glut_min2_r/activation	glut_min3_r/activation	semimem_r/activation	semiten_r/activation	bifemlh_r/activation	bifemsh_r/activation	sar_r/activation	add_long_r/activation	add_brev_r/activation	add_mag1_r/activation	add_mag2_r/activation	add_mag3_r/activation	tfl_r/activation	pect_r/activation	grac_r/activation	glut_max1_r/activation	glut_max2_r/activation	glut_max3_r/activation	iliacus_r/activation	psoas_r/activation	quad_fem_r/activation	gem_r/activation	peri_r/activation	rect_fem_r/activation	vas_med_r/activation	vas_int_r/activation	vas_lat_r/activation	med_gas_r/activation	lat_gas_r/activation	soleus_r/activation	tib_post_r/activation	flex_dig_r/activation	flex_hal_r/activation	tib_ant_r/activation	per_brev_r/activation	per_long_r/activation	per_tert_r/activation	ext_dig_r/activation	ext_hal_r/activation	ercspn_r/activation	intobl_r/activation	extobl_r/activation	
          0.00000000	         -1.65930051	          1.78081263	          9.47891015	          0.00000000	          0.86130040	         -0.00420863	        -16.44924066	          0.26318227	          4.95847272	         28.71316194	         -3.05927254	         -0.09409938	        -17.57154764	         -7.29838392	        -13.96774651	          9.57223236	          7.81996569	          3.26815899	          1.29500627	          0.02467731	         35.96907019	         -0.06287283	          1.37656029	         -5.35547738	         -3.82631607	          1.80481336	        -13.54092999	         10.05266948	        -14.76635281	        -13.44970874	         14.46580052	         32.08479225	         20.07562143	         86.51662706	         86.51662706	          0.22393443	          0.05911967	          0.05000053	          0.21708976	          0.10946689	          0.06082259	          0.05000165	          0.05000021	          0.05000022	          0.05000138	          0.07455240	          0.18846100	          0.07287638	          0.05000451	          0.05000129	          0.05000041	          0.14085138	          0.10348132	          0.05002370	          0.05000176	          0.05000097	          0.05000075	          0.26497066	          0.47105885	          0.05000076	          0.08998818	          0.07398218	          0.25209486	          0.07951821	          0.08549841	          0.07713607	          0.05000002	          0.07656999	          0.05000001	          0.11364847	          0.10244751	          0.12319667	          0.08312933	          0.22852704	          0.19190962	          0.49078538	          0.38663843	          0.11206281	          0.05000002	          0.07081072	          0.06981998	          0.10976334	          0.06809522	          0.08826108	          0.05000110	          0.05000240	          0.05000181	          0.06630421	          0.06600815	          0.06082495	          0.06082173	          0.06082028	          0.05000062	          0.05000044	          0.16994266	          0.13914351	          0.12547393	          0.06082153	          0.05000174	          0.05000163	          0.06541314	          0.08891258	          0.12282290	          0.07531572	          0.07076246	          0.10213974	          0.05045217	          0.07561782	          0.05000013	          0.05000895	          0.05793444	          0.05000520	          0.06082025	          0.06082027	          0.06082024	          0.06082026	          0.05000174	          0.06082043	          0.44204577	          0.24847621	          0.15849815	          0.13783396	          0.53398673	          0.32252794	          0.05000001	          0.17228156	          0.13936821	
          0.01298430	         -1.64599412	          2.02132591	          9.50482500	          0.02243878	          0.86020375	         -0.00386606	        -16.57625517	          0.13382459	          4.74824073	         28.13590298	         -3.06202832	          0.06772880	        -19.16665120	         -7.79258405	        -17.07915091	          8.86901889	          8.37514343	          3.01338183	          0.98472903	          0.04804413	         36.58820216	         -0.05601556	          1.68284460	         -5.23897076	         -3.92831437	          1.42711630	        -13.60687616	         10.50025353	        -16.92067842	        -13.46273643	         14.67854622	         33.16592180	         20.36784157	         86.51662706	         86.51662706	          0.18409536	          0.05000034	          0.05205463	          0.17846839	          0.08999221	          0.05000250	          0.07387246	          0.05000138	          0.05004330	          0.05000027	          0.06128933	          0.25086257	          0.34380409	          0.16369647	          0.07398113	          0.07397992	          0.11579322	          0.09633666	          0.07398031	          0.05000824	          0.05001611	          0.07393860	          0.21783100	          0.39819379	          0.07398191	          0.07397935	          0.06082043	          0.20724583	          0.06537159	          0.07028789	          0.06341322	          0.05000019	          0.06294782	          0.05996331	          0.09342980	          0.08422163	          0.10127935	          0.24166185	          0.33873648	          0.21205983	          0.46518341	          0.54408167	          0.09212627	          0.05343102	          0.06445577	          0.06740170	          0.14582059	          0.14932588	          0.18534167	          0.05302339	          0.05000663	          0.05000075	          0.05450837	          0.06081995	          0.05000419	          0.05000143	          0.05000029	          0.05000250	          0.08999272	          0.17850154	          0.21452897	          0.16300572	          0.05000115	          0.05000262	          0.06767663	          0.06082045	          0.16239252	          0.19591730	          0.06191667	          0.05817346	          0.08396891	          0.05000050	          0.15355798	          0.07395759	          0.24572107	          0.28340646	          0.19907458	          0.05000000	          0.05000002	          0.05000000	          0.05000003	          0.05002175	          0.05000036	          0.65005187	          0.34239473	          0.20103110	          0.53786615	          0.64097976	          0.50200991	          0.05000001	          0.14163175	          0.11457386	
          0.02596860	         -1.62533070	          2.24786663	          9.48534586	          0.04482476	          0.85847900	         -0.00352717	        -16.51419207	          0.03259350	          4.57451334	         27.48620541	         -3.01458457	          0.24330434	        -21.14580002	         -8.94772892	        -19.45706603	          7.83815541	          8.93742039	          2.78561263	          0.73231821	         -0.04811473	         35.30487369	         -0.12115835	          1.96636883	         -5.07742700	         -4.00809547	          1.03990394	        -13.68566310	         10.92437146	        -19.00230709	        -13.50033886	         15.02751098	         34.24348842	         20.56621398	         86.51662706	         86.51662706	          0.19022718	          0.05965246	          0.06082001	          0.14671804	          0.07398221	          0.05000091	          0.10875346	          0.05000032	          0.05000063	          0.05000012	          0.05038629	          0.24325919	          0.29592809	          0.13457488	          0.06082127	          0.06082003	          0.09519304	          0.08506907	          0.06081975	          0.05001107	          0.05000941	          0.06078925	          0.17907774	          0.34628700	          0.06082025	          0.06081845	          0.05000022	          0.17037569	          0.08999094	          0.08983204	          0.06111969	          0.05000015	          0.05174915	          0.05000032	          0.07680815	          0.06923829	          0.08326126	          0.23960219	          0.29797458	          0.18618462	          0.58862707	          0.67193623	          0.33706611	          0.08123236	          0.05298875	          0.05541061	          0.22476755	          0.27708910	          0.42796861	          0.05000083	          0.05000062	          0.32829832	          0.05989054	          0.05000009	          0.05000131	          0.05000008	          0.05001206	          0.06082036	          0.07398266	          0.14674527	          0.17636331	          0.16374781	          0.05000031	          0.06082065	          0.05563689	          0.05000028	          0.18445661	          0.19355997	          0.06082018	          0.05355267	          0.06903056	          0.10946105	          0.30392144	          0.06080019	          0.20200606	          0.23298702	          0.16365822	          0.06031673	          0.06082019	          0.06082021	          0.05000050	          0.06082020	          0.06082024	          0.60306348	          0.31696378	          0.16579785	          0.44217698	          0.66386788	          0.47051480	          0.05000013	          0.11643470	          0.09419056	
          0.03895290	         -1.60018222	          2.44780178	          9.41471567	          0.06686601	          0.85647433	         -0.00317489	        -16.25404819	         -0.05610038	          4.42287020	         26.81020425	         -2.92250186	          0.43478800	        -23.49038853	        -10.27484129	        -21.10461672	          6.92773976	          9.44624283	          2.56492315	          0.52864130	         -0.01973390	         32.07263902	         -0.14288172	          2.21632953	         -4.86307430	         -4.06893244	          0.70426032	        -13.75602893	         11.35056675	        -20.92148101	        -13.54458262	         15.51281261	         35.21830258	         20.58613036	         86.51662706	         86.51662706	          0.15638501	          0.05000002	          0.05000000	          0.14708985	          0.06082049	          0.05000009	          0.15336559	          0.05000008	          0.05000016	          0.05000010	          0.05000348	          0.22735789	          0.24328253	          0.11063361	          0.05000188	          0.05000055	          0.07825777	          0.06993624	          0.05000021	          0.05000031	          0.05000021	          0.05000019	          0.14721890	          0.33549366	          0.05000003	          0.05000009	          0.05000007	          0.14006494	          0.07398208	          0.07398207	          0.07398207	          0.05000051	          0.05000067	          0.05000026	          0.06314358	          0.05692074	          0.06844874	          0.27921838	          0.28462677	          0.17824066	          0.49199062	          0.82415283	          0.27710026	          0.12354159	          0.05000000	          0.05000002	          0.30105634	          0.39878561	          0.48401780	          0.14842953	          0.22258037	          0.26989324	          0.05000126	          0.06533879	          0.05676128	          0.06082007	          0.05000028	          0.05000014	          0.06082078	          0.12063860	          0.16213849	          0.17863592	          0.05000011	          0.05000062	          0.06081610	          0.28532738	          0.25027232	          0.22821182	          0.05000004	          0.05000003	          0.13380734	          0.08998764	          0.24985245	          0.05000001	          0.16606831	          0.21446890	          0.13454273	          0.05000000	          0.05000001	          0.05000000	          0.05000000	          0.05000009	          0.05000007	          0.73449839	          0.35459019	          0.17108092	          0.70099855	          0.78030223	          0.59923742	          0.05384916	          0.09572034	          0.07743355	
